PathFileType	4	(X/Y/Z)	Patient4_TMGait_0pt5_02_right_23.trc.trc
DataRate	CameraRate	NumFrames	NumMarkers	Units	OrigDataRate	OrigDataStartFrame	OrigNumFrames
76.086956521739	76.086956521739	5	33	mm	76.086956521739	106	       141
Frame#	Time	Sacral			L.Shoulder			Chest			R.Shoulder			Neck			R.ASIS			L.ASIS			R.Thigh.Superior			R.Thigh.Lateral			R.Thigh.Inferior			R.Patella			L.Thigh.Superior			L.Thigh.Lateral			L.Thigh.Inferior			L.Patella			L.Shank.Superior			L.Shank.Lateral			L.Shank.Inferior			R.Shank.Superior			R.Shank.Lateral			R.Shank.Inferior			R.Heel			R.Midfoot.Superior			R.Midfoot.Lateral			R.Toe			L.Heel			L.Midfoot.Lateral			L.Midfoot.Superior			L.Toe			L.Elbow			L.Wrist			R.Elbow			R.Wrist			
		X1	Y1	Z1	X2	Y2	Z2	X3	Y3	Z3	X4	Y4	Z4	X5	Y5	Z5	X6	Y6	Z6	X7	Y7	Z7	X8	Y8	Z8	X9	Y9	Z9	X10	Y10	Z10	X11	Y11	Z11	X12	Y12	Z12	X13	Y13	Z13	X14	Y14	Z14	X15	Y15	Z15	X16	Y16	Z16	X17	Y17	Z17	X18	Y18	Z18	X19	Y19	Z19	X20	Y20	Z20	X21	Y21	Z21	X22	Y22	Z22	X23	Y23	Z23	X24	Y24	Z24	X25	Y25	Z25	X26	Y26	Z26	X27	Y27	Z27	X28	Y28	Z28	X29	Y29	Z29	X30	Y30	Z30	X31	Y31	Z31	X32	Y32	Z32	X33	Y33	Z33	

106	31.310000000000	509.963643398080	1009.677519730453	431.240247434663	699.436556499089	1436.873684309063	249.841016979948	796.584135888401	1366.611475963341	414.635228564177	706.754994897480	1444.051825204508	585.124463943427	694.785936173125	1498.022071963552	400.602197906580	730.381306802857	947.613291930481	556.628129511967	731.839963570421	961.341230321933	280.020973291865	820.628492825467	784.544060526262	534.871929884873	782.081701668678	664.458551974325	609.662970664878	878.681709454179	628.956603243520	536.737120123683	903.290751371811	518.009577887107	561.803191472111	767.576222794146	746.337798489434	314.667314981193	673.778484474935	635.105282787427	256.295148318754	750.527774372010	553.301184343896	322.707420737294	745.982978873815	483.369144141572	334.697839990255	715.938404515809	412.791315618645	326.383212448020	622.711276947877	302.490761452549	274.997247466103	664.068073886910	190.472901893591	349.200683556168	832.946916816564	437.715837656055	563.784022995335	711.832435148838	386.355523773871	613.298740043777	712.343912215498	276.173486508345	566.546906634301	522.859005958154	208.104490297852	521.362767267045	685.362765912341	145.893561958731	577.454129534774	573.899363235908	150.361010151013	601.529580847293	742.913846837595	32.213264111210	614.427435384094	527.541310313424	38.256266857861	390.930714937881	601.337090646917	34.798372601934	309.657445783942	685.284323616472	95.345379973842	336.239433125438	813.345717363134	41.103161633564	306.555609457529	667.859957143250	1095.419691913986	112.608532762684	920.893201543537	1077.294369167648	106.830686804332	648.112525619155	1103.791240023607	705.882130459593	707.979582991450	850.828735806412	733.364956439268	
107	31.323142857143	510.021779130139	1010.472682910891	430.099970467679	702.631222397798	1437.475797538426	249.707265044862	798.071758121999	1366.497859320130	415.156526019813	707.281572882342	1444.203886042018	584.949802707209	696.761108137228	1498.371194466739	400.519545209218	729.832694900449	948.446704774182	556.533386957578	732.437170286200	961.524746134634	280.010238802325	821.005188548104	787.077009280752	533.880908760932	783.985992993433	666.520076789856	608.997083109258	880.250903273565	631.728554117932	535.606267875323	906.721421647941	522.392255739400	560.996621674666	765.377439266151	745.425908835561	314.553128974256	670.171427037080	635.265146491538	255.865688986454	745.729436091800	552.600552188018	322.327953830769	740.282434531648	482.875538425244	334.354745819187	710.251402300472	412.696269652669	325.992993754495	616.701817440625	302.650199567328	274.695224452130	657.772449443419	190.509949326961	348.919577111467	840.294632257886	439.943149973999	563.231222371280	722.695222518359	382.036882939300	613.438103368272	729.073973395991	272.058892044434	566.598607119387	543.426124638298	192.292178750822	522.680717059481	709.888208260639	141.181573262815	577.624098771807	598.717325836434	138.491465444181	602.760964337840	775.073350798379	32.176271352112	614.683417216813	520.945316481520	38.437727389751	390.860544744885	594.743782662531	34.848990768774	309.647315860292	678.759724315576	95.339891622196	336.107772166324	806.767924503672	40.907914051599	306.489672098315	673.231443878326	1096.851672133314	110.503138453506	926.331719836293	1095.493910307592	105.169638962333	640.569942438733	1106.282221354270	706.765778369314	689.421527741057	851.704722340759	739.708593652956	
108	31.336285714286	510.147015892329	1011.253817491953	429.138572598652	705.909062309401	1437.935919892175	249.723028993201	799.672980045829	1366.260029086791	415.797752717898	707.990204172838	1444.287076158553	584.908665302053	698.841682434258	1498.614594318808	400.553369098660	729.367022350896	949.073489102477	556.542251405918	733.224479300977	961.927655832003	280.472198538619	820.977594990441	788.923397140919	533.016436527897	785.075880175914	667.992148062938	608.456724175674	880.773699307067	633.555859714912	534.539161580985	908.871774164118	526.151611920293	560.222409493107	763.188445419167	744.496446009871	314.544984488200	666.571875351725	635.427031353184	255.489712061287	740.923938949859	551.909490611591	321.966638379295	734.566594703804	482.398172246466	334.015380005904	704.566454221773	412.607429927400	325.612056827235	610.679059708628	302.827337502496	274.423109876776	651.478960222902	190.555243489186	348.641264383530	846.821482311549	441.711723987995	562.815574978431	733.538237606759	376.954774696987	613.953943753187	746.255381446270	267.583946607245	566.989532179625	565.670867440128	175.527440362270	524.535287297382	735.499791679742	136.472282425169	578.220741691445	625.175893443088	126.182184561662	604.491929017319	808.463603115281	32.893538368999	615.280191538430	514.368372637638	38.627807854330	390.784389396592	588.153867254636	34.900573929412	309.644416899277	672.240043615902	95.335491399451	335.976838313162	800.188046276132	40.717978099234	306.424185835738	678.560138081301	1098.143485287006	108.556723575899	930.674434211668	1112.625212855200	104.012927985153	633.109747418984	1108.930558645282	707.705350487760	671.904923721329	853.406277853846	745.308936205746	
109	31.349428571429	510.347635299489	1011.984465867357	428.358628278507	709.196881152974	1438.227294762034	249.896136699942	801.363322950076	1365.879980895757	416.547748464822	708.881121794802	1444.269420488984	585.013099401714	701.000647754560	1498.725652512382	400.708605759583	729.022450832905	949.455082101858	556.650674463059	734.267642336298	962.570149215574	281.417373987301	820.554967906259	789.971806783947	532.329005797427	785.280067364766	668.791747740461	608.070339244474	880.218261989746	634.350268922523	533.588807368304	909.708683317513	529.192532851383	559.483027072027	761.047902668834	743.539165246544	314.613797287393	663.013158210925	635.575056082676	255.164936884207	736.152566177852	551.215309880409	321.614320532543	728.890316095459	481.927481208193	333.669366732965	698.918368245297	412.505986738848	325.242716452501	604.668889614805	303.011885349965	274.184504021244	645.201245454279	190.596391819957	348.373603261013	852.441041484370	443.024408646537	562.551175966848	744.287037009629	371.299566980320	614.835015985245	763.709574607064	263.006789377035	567.708453628042	589.521843376720	158.322412619526	526.834789073009	761.899288033379	132.134696926795	579.245699554584	653.054762276149	113.926944643332	606.648342396776	842.567793895763	34.720568610253	616.236894303031	507.808368858513	38.820526062359	390.704797357551	581.566494860593	34.951665840135	309.649612485238	665.723851769325	95.330291084635	335.851609194628	793.604324611311	40.535440628403	306.360591643948	683.834588447783	1099.264527353407	106.779270201269	934.083243391764	1128.546279152074	103.392370696156	625.821701857728	1111.674305047689	708.685594962340	655.535280961546	855.700323581131	750.140209850385	
110	31.362571428571	510.641587717949	1012.625785045968	427.764652822143	712.419363508186	1438.333068359383	250.233835939653	803.115289589631	1365.349628957053	417.396112395151	709.948794314073	1444.126969692002	585.274976013415	703.205313744991	1498.684846442319	400.992972170938	728.839892606901	949.565040604997	556.858198806904	735.603659616608	963.425127991216	282.814781473591	819.754456087711	790.133586857481	531.868572428471	784.549283219698	668.862760565106	607.865726886989	878.584098395947	634.065465936291	532.806778715481	909.233237983476	531.448726781894	558.777608846388	758.992178534281	742.542722098279	314.736203540803	659.521434526646	635.696371175150	254.893166778141	731.445607141993	550.505663300619	321.269440775605	723.298432487693	481.454479190018	333.310354799854	693.330286678417	412.377357700549	324.890759048302	598.689160550983	303.194965075325	273.984103261132	638.948113169444	190.623095949472	348.124913322707	857.085579497767	443.899375866815	562.446208494466	754.838997193187	365.274390291166	616.049473182819	781.217834006984	258.571780971368	568.723554178782	614.784087684633	141.187064904643	529.467182469027	788.731065111362	128.486723234948	580.663484721422	682.035084249009	102.176850383366	609.127202384385	876.836495561358	37.929530983047	617.527462779271	501.261259515348	39.009655112297	390.626024299724	574.980466056726	35.001194410067	309.663710012624	659.209239601976	95.322650044799	335.736954366899	787.014990322604	40.361961506925	306.300404249750	689.035496972395	1100.189917334408	105.194743739100	936.720845129148	1143.145652133525	103.322322318567	618.808248628716	1114.444803744018	709.686269838964	640.387879358783	858.365933037206	754.208175828971	
